<?xml version="1.0" encoding="UTF-8" standalone="no"?>
<!DOCTYPE svg PUBLIC "-//W3C//DTD SVG 1.1//EN" "http://www.w3.org/Graphics/SVG/1.1/DTD/svg11.dtd">
<svg width="100%" height="100%" viewBox="0 0 1376 951" version="1.1" xmlns="http://www.w3.org/2000/svg" xmlns:xlink="http://www.w3.org/1999/xlink" xml:space="preserve" xmlns:serif="http://www.serif.com/" style="fill-rule:evenodd;clip-rule:evenodd;stroke-linejoin:round;stroke-miterlimit:2;">
    <g transform="matrix(1,0,0,1,-272.191,-53.4915)">
        <g id="Layer" transform="matrix(-0.872398,1.06838e-16,-1.06838e-16,-0.872398,1648.14,1004.23)">
            <path d="M1577.2,545C1577.2,846.4 1270.8,1089.8 788.7,1089.8C308.2,1089.8 0.1,846.4 0.1,545L0.1,515.2C0.1,232 353,0.2 788.7,0.2C1224.4,0.2 1577.2,232 1577.2,515.2L1577.2,545Z" style="fill:rgb(9,93,0);fill-rule:nonzero;"/>
        </g>
        <g id="Layer1" serif:id="Layer" transform="matrix(-0.872398,1.06838e-16,-1.06838e-16,-0.872398,1648.14,1004.23)">
            <ellipse cx="792" cy="515.2" rx="757.1" ry="483.5" style="fill:rgb(255,43,0);"/>
        </g>
        <g id="Layer2" serif:id="Layer" transform="matrix(-0.872398,1.06838e-16,-1.06838e-16,-0.872398,1648.14,1004.23)">
            <path id="Layer3" serif:id="Layer" d="M604.8,291.6C657.8,238.6 705.8,190.6 820.2,187.3C898,185.6 975.9,222.1 975.9,222.1C1120,291.6 1267.5,265.1 1386.7,215.5C1472.9,285 1529.2,371.1 1544.1,463.8C1368.5,503.6 1239.3,558.2 1211.1,571.5C1174.7,540 965.9,357.9 914.6,319.8C886.4,299.9 869.9,290 854.9,285C841.7,281.7 821.8,276.7 790.3,286.7C760.5,294.9 730.7,319.8 700.9,343C674.4,364.5 644.5,387.7 623,392.6C584.9,400.9 548.5,392.6 536.9,377.7C531.9,371.1 540.2,362.8 540.2,362.8L604.8,291.6Z" style="fill:white;fill-rule:nonzero;"/>
            <path id="Layer4" serif:id="Layer" d="M1219.4,627.8C1219.4,642.7 1211.1,654.3 1197.9,662.6C1161.4,685.7 1133.3,664.2 1131.6,664.2C1131.6,664.2 1048.8,588 1017.3,561.5C1012.3,558.2 1005.7,553.3 1002.4,556.6C999.1,561.5 1009,569.8 1009,569.8L1105.1,667.5C1105.1,667.5 1118.4,680.8 1120,697.3C1121.7,710.6 1116.7,727.1 1095.2,742.1C1060.4,765.2 1033.9,748.7 1027.2,743.7C997.4,713.9 965.9,680.8 942.7,662.6C937.8,659.3 931.1,654.3 927.8,657.6C924.5,660.9 934.5,670.8 934.5,670.8L1005.7,750.3C1005.7,750.3 1022.3,770.2 1007.4,790.1C1005.7,793.4 1000.7,796.7 997.4,800C982.5,811.6 961,813.3 949.4,811.6C936.1,808.3 932.8,803.3 932.8,803.3C932.8,803.3 896.4,765.2 864.9,738.7C859.9,735.4 853.3,730.5 850,733.8C846.7,737.1 856.6,747 856.6,747L917.9,814.9C921.2,818.2 917.9,821.5 916.2,824.8C912.9,829.8 904.6,836.4 881.4,839.8C851.6,843.1 820.2,826.5 806.9,819.9C813.5,808.3 816.8,795.033 816.8,780.1C816.8,732.1 778.7,694 730.7,694L722.4,694C725.7,664.2 719.1,624.5 679.3,607.9C666.1,602.9 654.5,599.6 642.9,599.6C631.3,599.6 621.4,602.9 613.1,606.3C606.4,591.4 594.8,574.8 570,566.5C558.4,563.2 548.5,561.5 538.5,561.5C517,561.5 498.8,569.8 487.2,579.8C473.9,561.5 452.4,550 429.2,550C407.6,550 389.4,558.2 376.2,573.1C362.9,563.2 296.6,513.5 81.3,465.5C73,463.8 49.8,457.2 36.5,453.9C54.8,356.2 119.4,268.4 213.8,197.2C293.3,233.7 346.3,250.2 407.6,266.8C417.6,270.1 470.6,278.4 480.5,278.4C503.7,278.4 526.9,271.8 551.8,265.1C571.7,260.2 591.5,255.2 613.1,251.9C604.8,260.2 598.2,266.8 589.9,275.1L523.6,347.9C522,349.6 508.7,362.8 515.3,379.4C518.6,386 523.6,392.6 531.9,397.6C550.1,410.9 591.5,420.8 626.3,412.5C652.8,407.5 681,384.4 712.5,359.5C742.3,336.3 777.1,313.2 801.9,306.5C811.9,303.2 825.1,301.6 835.1,303.2C853.3,306.5 871.5,313.2 903,336.3C957.7,377.7 1201.2,589.7 1202.8,591.4C1202.8,591.4 1221.1,606.3 1219.4,627.8Z" style="fill:white;fill-rule:nonzero;"/>
            <path id="Layer5" serif:id="Layer" d="M800.3,781.8C800.3,818.2 770.5,848 734,848C699.2,848 669.4,819.9 667.7,785.1C667.7,778.5 666.1,776.8 661.1,781.8C651.2,791.7 634.6,803.3 606.4,791.7C568.3,776.8 566.7,750.3 568.3,738.7C568.3,735.4 568.3,733.8 563.4,737.1C548.5,747 531.9,753.6 512,745.4C462.3,727.1 467.3,679.1 468.9,665.9L468.9,664.2C459,674.2 447.4,679.1 432.5,679.1C402.7,679.1 379.5,655.9 379.5,626.1C379.5,596.3 402.7,573.1 432.5,573.1C460.7,573.1 482.2,593 485.5,619.5C493.8,607.9 522,574.8 568.3,589.7C601.5,599.6 606.4,629.4 606.4,639.4C606.4,641 608.1,641 609.8,639.4C616.4,631.1 639.6,612.9 676,629.4C724.1,651 704.2,710.6 702.5,713.9C700.9,717.2 699.2,723.8 700.9,723.8C702.5,723.8 719.1,715.6 734,715.6C770.5,715.6 800.3,745.4 800.3,781.8Z" style="fill:white;fill-rule:nonzero;"/>
        </g>
        <g id="Layer6" serif:id="Layer" transform="matrix(-0.872398,1.06838e-16,-1.06838e-16,-0.872398,1648.14,1004.23)">
            <path d="M1542.5,460.5C1545.8,472.1 1547.4,482.1 1547.4,493.7C1405,526.8 1285.7,569.8 1232.7,593C1239.3,606.3 1244.3,621.2 1242.6,636.1C1240.9,657.6 1229.3,675.8 1209.5,689.1C1194.6,699 1178,704 1161.4,704C1156.5,704 1149.8,704 1144.9,702.3C1144.9,718.9 1139.9,747 1108.4,766.9C1091.8,778.5 1073.6,783.4 1057.1,783.4C1052.1,783.4 1045.5,783.4 1040.5,781.8C1040.5,796.7 1028.9,813.3 1012.3,824.8C995.8,838.1 979.2,843.1 962.6,843.1C952.7,843.1 944.4,841.4 937.8,839.8C936.1,841.4 936.1,843.1 934.5,844.7C927.8,853 914.6,866.2 883.1,869.6L871.5,869.6C840,869.6 810.2,854.7 795.3,846.4C778.7,864.6 755.5,874.5 730.7,874.5C694.2,874.5 661.1,851.3 647.9,818.2C641.2,821.5 632.9,823.2 624.7,823.2C614.7,823.2 604.8,821.5 594.8,816.6C565,805 551.8,786.8 546.8,771.9C540.2,773.5 533.5,773.5 528.6,773.5C520.3,773.5 512,771.9 502.1,768.5C470.6,757 450.7,733.8 444.1,702.3C439.1,704 434.1,704 429.2,704C387.8,704 353,670.8 353,627.8C353,617.867 354.633,607.933 357.9,598C346.3,589.7 278.4,541.7 74.7,497C66.4,495.3 29.9,487 29.9,487C31.6,475.4 33.2,463.8 34.9,453.9C48.1,458.9 69.7,465.5 79.6,467.2C280.1,513.5 354.6,559.9 372.9,574.8C386.1,561.5 406,553.3 425.9,553.3C449.1,553.3 470.6,563.2 485.5,581.4C500.4,569.8 517,564.9 535.2,564.9C546.8,564.9 556.7,566.5 568.3,569.8C588.2,576.5 603.1,589.7 613.1,607.9C623,604.6 631.3,602.9 641.2,602.9C654.5,602.9 666.1,606.3 679.3,611.2C724.1,629.4 727.4,672.5 725.7,695.7L729,695.7C778.7,695.7 818.5,735.4 818.5,785.1C818.5,798.4 815.2,811.6 810.2,823.2C823.5,829.8 846.7,841.4 869.9,841.4L878.1,841.4C899.7,838.1 908,831.5 909.6,828.2C911.3,824.8 911.3,823.2 911.3,823.2L850,757C846.7,753.6 838.4,743.7 843.3,737.1C845,735.4 848.3,733.8 850,733.8C854.9,733.8 859.9,737.1 863.2,740.4C893,765.2 929.5,800 932.8,805C936.1,808.3 941.1,809.9 947.7,811.6L957.7,811.6C964.3,811.6 980.8,809.9 992.4,800C994.1,798.4 1000.7,791.7 1002.4,790.1C1015.6,775.2 1000.7,757 1000.7,757L929.5,677.5C929.5,677.5 926.2,675.8 924.5,672.5C919.6,664.2 921.2,659.3 922.9,657.6C924.5,654.3 927.8,654.3 929.5,654.3C934.5,654.3 939.4,659.3 944.4,662.6C964.3,677.5 990.8,704 1015.6,728.8L1030.5,742.1C1033.9,743.7 1043.8,750.3 1058.7,750.3C1070.3,750.3 1081.9,747 1093.5,738.7C1110.1,728.8 1116.7,715.6 1116.7,699C1115,684.1 1103.4,672.5 1103.4,672.5L1005.7,574.8C999.1,569.8 994.1,561.5 999.1,554.9C1000.7,553.3 1002.4,551.6 1005.7,551.6C1010.7,551.6 1015.6,554.9 1020.6,559.9C1050.4,586.4 1134.9,662.6 1134.9,662.6C1134.9,662.6 1146.5,670.8 1163.1,670.8C1173,670.8 1184.6,667.5 1194.6,660.9C1206.2,652.6 1214.4,641 1214.4,629.4C1214.4,606.3 1199.5,593 1199.5,593C1197.9,591.4 954.3,379.4 899.7,338C868.2,314.8 851.6,308.2 833.4,306.5L826.8,306.5C818.5,306.5 810.2,308.2 801.9,309.8C775.4,318.1 740.6,343 715.8,362.8C686,387.7 656.1,410.9 628,417.5C619.7,419.1 609.8,420.8 599.8,420.8C573.3,420.8 545.1,412.5 528.6,402.6C520.3,396 513.7,389.3 510.4,382.7C503.7,366.1 515.3,351.2 520.3,346.3L586.6,273.4C591.5,268.4 594.8,265.1 599.8,260.2C584.9,263.5 570,268.4 555.1,271.8C530.2,278.4 507,285 482.2,285C470.6,285 459,283.3 449.1,283.3C412.6,280 295,250.2 198.9,210.5C208.8,203.9 217.1,197.2 227.1,190.6C318.2,227 434.1,255.2 457.3,255.2L482.2,255.2C502.1,255.2 523.6,250.2 546.8,243.6C573.3,237 603.1,227 637.9,227C672.7,197.2 725.7,164.1 820.2,162.5L826.8,162.5C908,162.5 984.2,198.9 987.5,200.5C1048.8,230.4 1111.7,245.3 1174.7,245.3C1237.6,245.3 1300.6,232 1368.5,202.2C1376.8,208.8 1386.7,217.1 1395,223.7C1318.8,258.5 1245.9,276.7 1174.7,276.7C1106.8,276.7 1040.5,260.2 974.2,228.7C965.9,225.4 896.4,193.9 826.8,193.9L821.8,193.9C709.2,197.2 661.1,245.3 609.8,296.6L543.5,367.8C540.2,371.1 538.5,374.4 540.2,376.1C548.5,386 570,392.6 593.2,392.6C603.1,392.6 611.4,391 621.4,389.3C642.9,384.4 671.1,362.8 697.6,341.3L699.2,339.6C729,316.5 758.9,293.3 788.7,283.3C801.9,278.4 815.2,276.7 826.8,276.7C840,276.7 850,280 856.6,281.7C873.2,285 891.4,296.6 917.9,316.5C965.9,351.2 1138.2,501.9 1212.8,566.5C1244.3,551.6 1371.8,497 1542.5,460.5ZM793.6,780.1C793.6,747 765.5,718.9 732.3,718.9C724.1,718.9 715.8,722.2 709.2,723.8C705.8,725.5 702.5,725.5 700.9,725.5L697.6,725.5C692.6,722.2 694.2,718.9 697.6,708.9C697.6,707.3 717.4,651 672.7,631.1C662.8,626.1 654.5,624.5 646.2,624.5C628,624.5 616.4,634.4 611.4,639.4C611.4,641 608.1,642.7 606.4,642.7C606.4,642.7 601.5,642.7 601.5,636.1C601.5,626.1 596.5,599.6 568.3,591.4C560.1,589.7 553.4,588 546.8,588C510.4,586.4 490.5,616.2 490.5,617.9L483.8,629.4L482.2,616.2C478.9,593 457.3,574.8 434.1,574.8C407.6,574.8 386.1,596.3 386.1,622.8C386.1,649.3 407.6,670.8 434.1,670.8C445.7,670.8 457.3,665.9 467.3,657.6L470.6,654.3L473.9,657.6C475.6,659.3 475.6,660.9 475.6,664.2C472.3,677.5 468.9,720.5 515.3,738.7C520.3,740.4 526.9,742.1 531.9,742.1C541.833,742.1 551.767,738.767 561.7,732.1C565,728.8 566.7,728.8 568.3,728.8L570,728.8L571.7,730.5C573.3,732.1 573.3,733.8 573.3,737.1C571.7,747 573.3,770.2 608.1,785.1C614.7,788.433 621.333,790.1 628,790.1C641.2,790.1 651.2,783.4 657.8,776.8C661.1,775.2 662.8,773.5 666.1,773.5C672.7,773.5 672.7,780.1 672.7,783.4C674.4,816.6 700.9,843.1 734,843.1C767.1,843.1 795.3,816.6 793.6,780.1Z" style="fill:rgb(9,93,0);"/>
        </g>
    </g>
</svg>
